<svg width="36" height="36" viewBox="0 0 36 36" fill="none" xmlns="http://www.w3.org/2000/svg">
<path d="M18 3C26.271 3 33 9.729 33 18C33 26.271 26.271 33 18 33C9.729 33 3 26.271 3 18C3 9.729 9.729 3 18 3ZM18 0C8.0595 0 0 8.0595 0 18C0 27.9405 8.0595 36 18 36C27.9405 36 36 27.9405 36 18C36 8.0595 27.9405 0 18 0ZM18 10.623C20.403 10.623 20.688 10.632 21.6375 10.6755C24.078 10.7865 25.215 11.943 25.3275 14.364C25.3695 15.3135 25.3785 15.597 25.3785 18C25.3785 20.403 25.3695 20.688 25.3275 21.636C25.215 24.0555 24.0795 25.215 21.6375 25.326C20.688 25.368 20.4045 25.3785 18 25.3785C15.597 25.3785 15.312 25.3695 14.364 25.326C11.919 25.2135 10.7865 24.0525 10.674 21.636C10.632 20.688 10.6215 20.403 10.6215 18C10.6215 15.597 10.632 15.312 10.674 14.364C10.785 11.9415 11.922 10.785 14.364 10.674C15.312 10.6305 15.597 10.623 18 10.623V10.623ZM18 9C15.555 9 15.2505 9.0105 14.289 9.0555C11.019 9.2055 9.204 11.019 9.054 14.289C9.0105 15.2505 9 15.5565 9 18C9 20.445 9.0105 20.751 9.054 21.711C9.204 24.9795 11.019 26.796 14.289 26.946C15.2505 26.9895 15.555 27 18 27C20.445 27 20.751 26.9895 21.7125 26.946C24.9765 26.796 26.799 24.9825 26.946 21.711C26.9895 20.751 27 20.445 27 18C27 15.5565 26.9895 15.2505 26.946 14.289C26.799 11.0235 24.9825 9.204 21.7125 9.0555C20.751 9.0105 20.445 9 18 9V9ZM18 13.3785C15.4485 13.3785 13.3785 15.447 13.3785 18C13.3785 20.553 15.4485 22.6215 18 22.6215C20.5515 22.6215 22.6215 20.553 22.6215 18C22.6215 15.4485 20.5515 13.3785 18 13.3785ZM18 21C16.3425 21 15 19.6575 15 18C15 16.344 16.3425 15 18 15C19.656 15 21.0015 16.3425 21.0015 18C21.0015 19.6575 19.656 21 18 21ZM22.803 12.117C22.2075 12.117 21.723 12.6 21.723 13.197C21.723 13.7925 22.206 14.277 22.803 14.277C23.4 14.277 23.8845 13.794 23.8845 13.197C23.8845 12.6 23.4015 12.117 22.803 12.117Z" fill="#B6B6B6"/>
</svg>
